<svg width="36" height="38" viewBox="0 0 36 38" fill="none" xmlns="http://www.w3.org/2000/svg">
<path d="M6.00002 38V29.9385C4.10002 28.2051 2.62501 26.2186 1.57501 23.9788C0.525002 21.7391 0 19.4082 0 16.9861C0 12.2677 1.65278 8.25713 4.95833 4.95427C8.26389 1.65142 12.2778 0 17 0C20.8846 0 24.3583 1.1609 27.4211 3.48269C30.484 5.80449 32.4731 8.81667 33.3885 12.5192L35.7253 21.7484C35.8751 22.3187 35.7692 22.8365 35.4077 23.3019C35.0461 23.7673 34.5641 23.9999 33.9615 23.9999H30V30.3846C30 31.3788 29.646 32.23 28.938 32.938C28.2299 33.646 27.3788 34 26.3846 34H21.9999V38H19V31.0001H26.3846C26.5641 31.0001 26.7116 30.9424 26.8269 30.827C26.9423 30.7116 27 30.5641 27 30.3846V21H32.4001L30.5 13.25C29.7334 10.2038 28.0936 7.73393 25.5808 5.84033C23.068 3.94674 20.2077 2.99994 17 2.99994C13.1333 2.99994 9.8333 4.35181 7.09996 7.05556C4.36661 9.7593 2.99994 13.0472 2.99994 16.9192C2.99994 18.9159 3.40827 20.8128 4.22494 22.6099C5.04161 24.4069 6.19995 26.0043 7.69996 27.402L8.99996 28.6V38H6.00002ZM16.807 26.8077C17.2972 26.8077 17.7083 26.6419 18.0404 26.3103C18.3724 25.9787 18.5384 25.5678 18.5384 25.0776C18.5384 24.5874 18.3726 24.1763 18.041 23.8443C17.7094 23.5122 17.2985 23.3462 16.8083 23.3462C16.3182 23.3462 15.907 23.512 15.575 23.8436C15.2429 24.1752 15.0769 24.5861 15.0769 25.0763C15.0769 25.5665 15.2427 25.9776 15.5743 26.3096C15.9059 26.6417 16.3168 26.8077 16.807 26.8077ZM15.6346 20.8693H18.05C18.05 20.1513 18.1679 19.5276 18.4038 18.9981C18.6397 18.4686 19.091 17.8436 19.7577 17.1231C20.3448 16.4693 20.909 15.8071 21.45 15.1366C21.991 14.466 22.2615 13.6257 22.2615 12.6154C22.2615 11.2908 21.7583 10.1712 20.7519 9.25656C19.7455 8.34195 18.4808 7.88464 16.9577 7.88464C15.7397 7.88464 14.6308 8.2231 13.6308 8.90002C12.6308 9.57694 11.9077 10.468 11.4615 11.5731L13.6346 12.5115C13.9192 11.8038 14.366 11.2346 14.975 10.8038C15.5839 10.3731 16.2448 10.1577 16.9577 10.1577C17.7679 10.1577 18.4468 10.3863 18.9942 10.8436C19.5417 11.3008 19.8154 11.8914 19.8154 12.6154C19.8154 13.3411 19.5975 13.9757 19.1615 14.5193C18.7256 15.0629 18.2308 15.618 17.6769 16.1847C17.0103 16.8718 16.5032 17.5654 16.1558 18.2654C15.8083 18.9654 15.6346 19.8334 15.6346 20.8693Z" fill="#C9A84C"/>
</svg>
