<svg width="17" height="21" viewBox="0 0 17 21" fill="none" xmlns="http://www.w3.org/2000/svg">
<path d="M0 21V2.26636C0 1.63306 0.219402 1.09701 0.658207 0.658207C1.09701 0.219402 1.63306 0 2.26636 0H14.0322C14.6654 0 15.2015 0.219402 15.6403 0.658207C16.0791 1.09701 16.2985 1.63306 16.2985 2.26636V21L8.14926 17.504L0 21ZM1.88056 18.1165L8.14926 15.4209L14.4179 18.1165V2.26636C14.4179 2.16991 14.3778 2.0815 14.2974 2.00112C14.217 1.92075 14.1286 1.88056 14.0322 1.88056H2.26636C2.16991 1.88056 2.0815 1.92075 2.00112 2.00112C1.92075 2.0815 1.88056 2.16991 1.88056 2.26636V18.1165ZM1.88056 1.88056C1.88056 1.88056 1.92075 1.88056 2.00112 1.88056C2.0815 1.88056 2.16991 1.88056 2.26636 1.88056H14.0322C14.1286 1.88056 14.217 1.88056 14.2974 1.88056C14.3778 1.88056 14.4179 1.88056 14.4179 1.88056H8.14926H1.88056Z" fill="#C9A84C"/>
</svg>
