<svg width="18" height="24" viewBox="0 0 18 24" fill="none" xmlns="http://www.w3.org/2000/svg">
<path d="M8.80644 24C8.17096 24 7.62297 23.7798 7.16249 23.3395C6.70201 22.8992 6.4516 22.3613 6.41128 21.7258H11.2016C11.1613 22.3613 10.9109 22.8992 10.4504 23.3395C9.9899 23.7798 9.44192 24 8.80644 24ZM4.0887 19.9838V18.0968H13.5242V19.9838H4.0887ZM4.28224 16.3548C2.9645 15.5355 1.92136 14.4649 1.15282 13.1431C0.384273 11.8213 0 10.3758 0 8.80644C0 6.35483 0.854837 4.27419 2.56451 2.56451C4.27419 0.854837 6.35483 0 8.80644 0C11.258 0 13.3387 0.854837 15.0484 2.56451C16.758 4.27419 17.6129 6.35483 17.6129 8.80644C17.6129 10.3758 17.2286 11.8213 16.4601 13.1431C15.6915 14.4649 14.6484 15.5355 13.3306 16.3548H4.28224ZM4.84352 14.4677H12.7694C13.7129 13.7968 14.4415 12.9685 14.9552 11.9831C15.469 10.9976 15.7258 9.9387 15.7258 8.80644C15.7258 6.8774 15.0548 5.24191 13.7129 3.89997C12.371 2.55803 10.7355 1.88706 8.80644 1.88706C6.8774 1.88706 5.24191 2.55803 3.89997 3.89997C2.55803 5.24191 1.88706 6.8774 1.88706 8.80644C1.88706 9.9387 2.14391 10.9976 2.65762 11.9831C3.17134 12.9685 3.89997 13.7968 4.84352 14.4677Z" fill="#C9A84C"/>
</svg>
