<svg width="24" height="24" viewBox="0 0 24 24" fill="none" xmlns="http://www.w3.org/2000/svg">
<path d="M6.72876 17.2713L14.8178 14.8178L17.2713 6.72876L9.18221 9.18221L6.72876 17.2713ZM11.9972 13.6518C11.5375 13.6518 11.1478 13.491 10.828 13.1692C10.5081 12.8475 10.3482 12.4568 10.3482 11.9972C10.3482 11.5375 10.5091 11.1478 10.8308 10.828C11.1526 10.5081 11.5432 10.3482 12.0029 10.3482C12.4625 10.3482 12.8522 10.5091 13.1721 10.8308C13.4919 11.1526 13.6518 11.5432 13.6518 12.0029C13.6518 12.4625 13.491 12.8522 13.1692 13.1721C12.8475 13.4919 12.4568 13.6518 11.9972 13.6518ZM12.0021 24C10.3424 24 8.78237 23.6851 7.32197 23.0552C5.86158 22.4253 4.59124 21.5705 3.51095 20.4906C2.43065 19.4108 1.57542 18.1411 0.945255 16.6813C0.315085 15.2216 0 13.6618 0 12.0021C0 10.3424 0.314945 8.78237 0.944835 7.32197C1.57472 5.86158 2.42958 4.59124 3.50939 3.51095C4.5892 2.43066 5.85898 1.57543 7.31872 0.945255C8.77847 0.315085 10.3382 0 11.9979 0C13.6576 0 15.2177 0.314945 16.6781 0.944835C18.1385 1.57472 19.4088 2.42958 20.4891 3.50939C21.5694 4.5892 22.4246 5.85898 23.0548 7.31872C23.6849 8.77847 24 10.3382 24 11.9979C24 13.6576 23.6851 15.2177 23.0552 16.6781C22.4253 18.1385 21.5705 19.4088 20.4906 20.4891C19.4108 21.5694 18.1411 22.4246 16.6813 23.0548C15.2216 23.6849 13.6618 24 12.0021 24ZM12 22.1053C14.8081 22.1053 17.1944 21.1231 19.1588 19.1588C21.1231 17.1944 22.1053 14.8081 22.1053 12C22.1053 9.1919 21.1231 6.80566 19.1588 4.84127C17.1944 2.87689 14.8081 1.8947 12 1.8947C9.1919 1.8947 6.80566 2.87689 4.84127 4.84127C2.87689 6.80566 1.8947 9.1919 1.8947 12C1.8947 14.8081 2.87689 17.1944 4.84127 19.1588C6.80566 21.1231 9.1919 22.1053 12 22.1053Z" fill="#C9A84C"/>
</svg>
