<svg width="17" height="14" viewBox="0 0 17 14" fill="none" xmlns="http://www.w3.org/2000/svg">
<path d="M1.7 13.6C1.2325 13.6 0.832294 13.4336 0.499376 13.1007C0.166459 12.7677 0 12.3675 0 11.9V1.7C0 1.2325 0.166459 0.832294 0.499376 0.499376C0.832294 0.166459 1.2325 0 1.7 0H15.3C15.7675 0 16.1677 0.166459 16.5007 0.499376C16.8336 0.832294 17 1.2325 17 1.7V11.9C17 12.3675 16.8336 12.7677 16.5007 13.1007C16.1677 13.4336 15.7675 13.6 15.3 13.6H1.7ZM8.50002 7.65002L1.7 3.40001V11.9H15.3V3.40001L8.50002 7.65002ZM8.50002 5.95001L15.3 1.7H1.7L8.50002 5.95001ZM1.7 3.40001V1.7V3.40001V11.9V3.40001Z" fill="#3366CC"/>
</svg>
