<svg width="24" height="24" viewBox="0 0 24 24" fill="none" xmlns="http://www.w3.org/2000/svg">
<path d="M11.3513 14.9688L19.5093 9.72973L11.3513 4.49066V14.9688ZM6.88563 19.4595C6.23032 19.4595 5.67565 19.2324 5.2216 18.7784C4.76754 18.3243 4.54052 17.7697 4.54052 17.1144V2.34511C4.54052 1.68981 4.76754 1.13513 5.2216 0.681079C5.67565 0.227026 6.23032 0 6.88563 0H21.6549C22.3102 0 22.8649 0.227026 23.3189 0.681079C23.773 1.13513 24 1.68981 24 2.34511V17.1144C24 17.7697 23.773 18.3243 23.3189 18.7784C22.8649 19.2324 22.3102 19.4595 21.6549 19.4595H6.88563ZM6.88563 17.5136H21.6549C21.7547 17.5136 21.8462 17.472 21.9293 17.3888C22.0125 17.3056 22.0541 17.2142 22.0541 17.1144V2.34511C22.0541 2.24531 22.0125 2.15383 21.9293 2.07066C21.8462 1.98749 21.7547 1.94591 21.6549 1.94591H6.88563C6.78583 1.94591 6.69434 1.98749 6.61118 2.07066C6.52801 2.15383 6.48643 2.24531 6.48643 2.34511V17.1144C6.48643 17.2142 6.52801 17.3056 6.61118 17.3888C6.69434 17.472 6.78583 17.5136 6.88563 17.5136ZM2.34511 24C1.68981 24 1.13513 23.773 0.681079 23.3189C0.227026 22.8649 0 22.3102 0 21.6549V4.93972H1.94591V21.6549C1.94591 21.7547 1.98749 21.8462 2.07066 21.9293C2.15383 22.0125 2.24531 22.0541 2.34511 22.0541H19.0603V24H2.34511ZM6.48643 1.94591C6.48643 1.94591 6.48643 1.98333 6.48643 2.05818C6.48643 2.13303 6.48643 2.22868 6.48643 2.34511V17.1144C6.48643 17.2308 6.48643 17.3264 6.48643 17.4013C6.48643 17.4761 6.48643 17.5136 6.48643 17.5136C6.48643 17.5136 6.48643 17.4761 6.48643 17.4013C6.48643 17.3264 6.48643 17.2308 6.48643 17.1144V2.34511C6.48643 2.22868 6.48643 2.13303 6.48643 2.05818C6.48643 1.98333 6.48643 1.94591 6.48643 1.94591Z" fill="#C9A84C"/>
</svg>
