<svg width="14" height="17" viewBox="0 0 14 17" fill="none" xmlns="http://www.w3.org/2000/svg">
<path d="M6.80007 8.50008C7.26757 8.50008 7.66778 8.33362 8.0007 8.0007C8.33362 7.66778 8.50008 7.26757 8.50008 6.80007C8.50008 6.33256 8.33362 5.93235 8.0007 5.59943C7.66778 5.26651 7.26757 5.10005 6.80007 5.10005C6.33256 5.10005 5.93235 5.26651 5.59943 5.59943C5.26651 5.93235 5.10005 6.33256 5.10005 6.80007C5.10005 7.26757 5.26651 7.66778 5.59943 8.0007C5.93235 8.33362 6.33256 8.50008 6.80007 8.50008ZM6.80007 14.7476C8.52842 13.161 9.81051 11.7195 10.6464 10.4232C11.4822 9.12696 11.9001 7.97591 11.9001 6.97007C11.9001 5.42589 11.4078 4.1615 10.4232 3.17691C9.43863 2.19231 8.23091 1.70002 6.80007 1.70002C5.36922 1.70002 4.1615 2.19231 3.17691 3.17691C2.19231 4.1615 1.70002 5.42589 1.70002 6.97007C1.70002 7.97591 2.11794 9.12696 2.95378 10.4232C3.78962 11.7195 5.07172 13.161 6.80007 14.7476ZM6.80007 17.0002C4.51921 15.0593 2.81565 13.2566 1.68939 11.592C0.563131 9.92739 0 8.38675 0 6.97007C0 4.84505 0.683548 3.15211 2.05065 1.89127C3.41774 0.630423 5.00088 0 6.80007 0C8.59925 0 10.1824 0.630423 11.5495 1.89127C12.9166 3.15211 13.6001 4.84505 13.6001 6.97007C13.6001 8.38675 13.037 9.92739 11.9107 11.592C10.7845 13.2566 9.08092 15.0593 6.80007 17.0002Z" fill="#3366CC"/>
</svg>
