<svg width="32" height="23" viewBox="0 0 32 23" fill="none" xmlns="http://www.w3.org/2000/svg">
<path d="M18.9597 8.0234V6.01904C19.788 5.63418 20.655 5.34553 21.5605 5.1531C22.466 4.96067 23.4061 4.86445 24.381 4.86445C24.9925 4.86445 25.5864 4.90792 26.1627 4.99486C26.739 5.08179 27.3172 5.19656 27.8975 5.33918V7.24977C27.327 7.0505 26.76 6.90594 26.1964 6.81607C25.6328 6.72621 25.0276 6.68128 24.381 6.68128C23.4061 6.68128 22.4621 6.79703 21.5487 7.02853C20.6354 7.26003 19.7724 7.59166 18.9597 8.0234ZM18.9597 16.3751V14.3414C19.7685 13.9566 20.633 13.6679 21.5531 13.4755C22.4733 13.283 23.4159 13.1868 24.381 13.1868C24.9925 13.1868 25.5864 13.2303 26.1627 13.3172C26.739 13.4042 27.3172 13.5189 27.8975 13.6615V15.5721C27.327 15.3729 26.76 15.2283 26.1964 15.1384C25.6328 15.0486 25.0276 15.0036 24.381 15.0036C23.4061 15.0036 22.4621 15.1204 21.5487 15.3538C20.6354 15.5873 19.7724 15.9277 18.9597 16.3751ZM18.9597 12.2139V10.1802C19.788 9.79537 20.655 9.50672 21.5605 9.31429C22.466 9.12185 23.4061 9.02564 24.381 9.02564C24.9925 9.02564 25.5864 9.06911 26.1627 9.15604C26.739 9.24298 27.3172 9.35775 27.8975 9.50036V11.411C27.327 11.2117 26.76 11.0671 26.1964 10.9773C25.6328 10.8874 25.0276 10.8425 24.381 10.8425C23.4061 10.8425 22.4621 10.9631 21.5487 11.2044C20.6354 11.4456 19.7724 11.7821 18.9597 12.2139ZM7.61902 17.5824C8.88106 17.5824 10.1089 17.7255 11.3026 18.0117C12.4962 18.2979 13.6811 18.7468 14.8572 19.3583V4.378C13.7866 3.68056 12.6281 3.15747 11.3817 2.80875C10.1353 2.46003 8.88106 2.28567 7.61902 2.28567C6.70473 2.28567 5.85052 2.35746 5.05639 2.50105C4.26225 2.64464 3.44614 2.87956 2.60804 3.20581C2.49081 3.24488 2.40778 3.30105 2.35893 3.37432C2.31009 3.44758 2.28567 3.52818 2.28567 3.61609V18.0278C2.28567 18.1646 2.33451 18.2647 2.4322 18.3282C2.52989 18.3917 2.63734 18.399 2.75457 18.3502C3.47739 18.104 4.24027 17.9145 5.0432 17.7817C5.84612 17.6489 6.70473 17.5824 7.61902 17.5824ZM17.1428 19.3583C18.3189 18.7468 19.5038 18.2979 20.6974 18.0117C21.8911 17.7255 23.119 17.5824 24.381 17.5824C25.2953 17.5824 26.1539 17.6489 26.9568 17.7817C27.7597 17.9145 28.5226 18.104 29.2454 18.3502C29.3627 18.399 29.4701 18.3917 29.5678 18.3282C29.6655 18.2647 29.7143 18.1646 29.7143 18.0278V3.61609C29.7143 3.52818 29.6899 3.45003 29.6411 3.38164C29.5922 3.31326 29.5092 3.25465 29.392 3.20581C28.5539 2.87956 27.7378 2.64464 26.9436 2.50105C26.1495 2.35746 25.2953 2.28567 24.381 2.28567C23.119 2.28567 21.8647 2.46003 20.6183 2.80875C19.3719 3.15747 18.2134 3.68056 17.1428 4.378V19.3583ZM16 22.7106C14.7712 21.8041 13.4457 21.1038 12.0234 20.6095C10.6012 20.1152 9.13307 19.8681 7.61902 19.8681C6.68911 19.8681 5.77581 19.9712 4.87911 20.1773C3.98242 20.3834 3.11795 20.6866 2.28572 21.0871C1.74262 21.3372 1.22589 21.2976 0.735533 20.9684C0.245178 20.6393 0 20.1728 0 19.5692V3.02417C0 2.69596 0.0844947 2.38778 0.253484 2.09962C0.422473 1.81146 0.666189 1.60389 0.98463 1.4769C2.01613 0.974833 3.09109 0.603165 4.20952 0.361899C5.32795 0.120633 6.46445 0 7.61902 0C9.10181 0 10.5504 0.202688 11.9648 0.608064C13.3792 1.01344 14.7243 1.61173 16 2.40295C17.2757 1.61173 18.6208 1.01344 20.0352 0.608064C21.4496 0.202688 22.8982 0 24.381 0C25.5356 0 26.6721 0.120633 27.7905 0.361899C28.9089 0.603165 29.9839 0.974833 31.0154 1.4769C31.3338 1.60389 31.5775 1.81146 31.7465 2.09962C31.9155 2.38778 32 2.69596 32 3.02417V19.5692C32 20.1728 31.7451 20.6344 31.2352 20.9538C30.7253 21.2732 30.189 21.3079 29.6264 21.0578C28.8039 20.6671 27.9517 20.3711 27.0696 20.1699C26.1876 19.9687 25.2914 19.8681 24.381 19.8681C22.8669 19.8681 21.3988 20.1152 19.9766 20.6095C18.5544 21.1038 17.2288 21.8041 16 22.7106Z" fill="#C9A84C"/>
</svg>
