<svg width="17" height="17" viewBox="0 0 17 17" fill="none" xmlns="http://www.w3.org/2000/svg">
<path d="M8.49999 17C7.32416 17 6.21916 16.7769 5.18499 16.3306C4.15083 15.8844 3.25125 15.2787 2.48625 14.5137C1.72125 13.7487 1.11562 12.8492 0.669374 11.815C0.223125 10.7808 0 9.67582 0 8.49999C0 7.32416 0.223125 6.21916 0.669374 5.18499C1.11562 4.15083 1.72125 3.25125 2.48625 2.48625C3.25125 1.72125 4.15083 1.11562 5.18499 0.669374C6.21916 0.223125 7.32416 0 8.49999 0C9.67582 0 10.7808 0.223125 11.815 0.669374C12.8492 1.11562 13.7487 1.72125 14.5137 2.48625C15.2787 3.25125 15.8844 4.15083 16.3306 5.18499C16.7769 6.21916 17 7.32416 17 8.49999C17 9.67582 16.7769 10.7808 16.3306 11.815C15.8844 12.8492 15.2787 13.7487 14.5137 14.5137C13.7487 15.2787 12.8492 15.8844 11.815 16.3306C10.7808 16.7769 9.67582 17 8.49999 17ZM7.64999 15.2575V13.6C7.18249 13.6 6.78228 13.4335 6.44937 13.1006C6.11645 12.7677 5.94999 12.3675 5.94999 11.9V11.05L1.87 6.96999C1.8275 7.22499 1.78854 7.47999 1.75312 7.73499C1.71771 7.98999 1.7 8.24499 1.7 8.49999C1.7 10.2142 2.26312 11.7158 3.38937 13.005C4.51562 14.2941 5.93583 15.045 7.64999 15.2575ZM13.515 13.09C14.0958 12.4525 14.5385 11.7406 14.8431 10.9544C15.1477 10.1681 15.3 9.34999 15.3 8.49999C15.3 7.11166 14.9139 5.84374 14.1419 4.69624C13.3698 3.54875 12.3392 2.72 11.05 2.21V2.55C11.05 3.0175 10.8835 3.4177 10.5506 3.75062C10.2177 4.08354 9.81749 4.24999 9.34999 4.24999H7.64999V5.94999C7.64999 6.19083 7.56853 6.3927 7.40562 6.55562C7.2427 6.71853 7.04082 6.79999 6.79999 6.79999H5.09999V8.49999H10.2C10.4408 8.49999 10.6427 8.58145 10.8056 8.74436C10.9685 8.90728 11.05 9.10916 11.05 9.34999V11.9H11.9C12.2683 11.9 12.6012 12.0098 12.8987 12.2294C13.1962 12.4489 13.4017 12.7358 13.515 13.09Z" fill="#C9A84C"/>
</svg>
